:SAMPLES-PER-SECOND 30
:FULLY-SPECIFIED
:DEGREES
138
root  34.767247 36.50071752 -14.85785837 9.595283508 -7.706408501 4.661507607
lowerback  -6.880679607 -1.63451004 -1.161880136
upperback  -4.189380169 -1.627400041 -4.100900173
thorax  -0.5542669892 -0.6394039989 -3.685139894
lowerneck  1.463819981 -19.5007 -13.12150002
upperneck  7.769989967 -27.35700035 15.64719963
head  6.083310127 -13.20510006 4.607950211
lclavicle  0 -4.497500157e-015 -2.743230041e-014
lhumerus  -50.09730148 30.12330055 60.2840004
lradius  0.03912768885 -6.507048965e-006 29.96680069
lwrist  4.824992743e-007 -3.790274832e-007 -29.85689926
lhand  -0 -37.24530029 -10.83619976
lfingers  90 7.125020027 -90
lthumb  95.01339402 -25.65637067 101.4536004
rclavicle  0 -4.497500157e-015 -2.743230041e-014
rhumerus  -15.39970016 -38.24639511 5.793172359
rradius  -5.16745672e-007 2.214343908e-008 43.82540131
rwrist  -0.0001011603963 -0.001600692281 -164.404007
rhand  -1.770738284e-031 4.381810188 -5.056729794
rfingers  -90 -7.125020027 -90
rthumb  -83.81095146 -10.66927669 -59.64132858
rfemur  -14.72313499 15.94591045 11.50677681
rtibia  -1.885197639 -2.510393143 22.32068634
rfoot  -0.06385734677 -23.94058228 -33.8552475
rtoes  4.009110568 19.61019644 -101.7954351
lfemur  -9.255527496 -16.50933838 -21.71214485
ltibia  3.167644739 -2.01031661 14.95825577
lfoot  1.631394506 -21.8616581 38.59253693
ltoes  -8.557615147 -18.14484829 -115.7899642
139
root  34.76905823 36.50057034 -14.85551699 9.60082531 -7.735101223 4.659820557
lowerback  -6.875919819 -1.625 -1.137429833
upperback  -4.180270195 -1.615929961 -4.120979786
thorax  -0.5482620001 -0.6343230009 -3.719120026
lowerneck  1.451910019 -19.49679947 -13.08969975
upperneck  7.752570152 -27.35240173 15.69239998
head  6.081659794 -13.19890022 4.617489815
lclavicle  0 -4.497500157e-015 -2.743230041e-014
lhumerus  -50.08160019 30.1772995 60.20299911
lradius  0.03899774328 -6.507048965e-006 29.95140266
lwrist  4.824992743e-007 -3.790274832e-007 -29.92359924
lhand  -4.411182526e-031 -36.8227005 -10.63710022
lfingers  90 7.125020027 -90
lthumb  94.77182066 -25.4763274 100.9828883
rclavicle  0 -4.497500157e-015 -2.743230041e-014
rhumerus  -15.03879929 -38.07939529 5.773448467
rradius  -5.16745672e-007 2.214343908e-008 43.06629944
rwrist  -0.0001011603963 -0.001600692281 -164.0240021
rhand  -0 4.759829998 -5.176459789
rfingers  -90 -7.125020027 -90
rthumb  -83.77184752 -10.58332966 -59.28168214
rfemur  -14.73217297 15.96570969 11.48970318
rtibia  -1.875793815 -2.50340414 22.31703758
rfoot  -0.05448601022 -23.92590141 -33.8351059
rtoes  3.994075507 19.61314827 -101.7506404
lfemur  -9.264062881 -16.46160507 -21.71201706
ltibia  3.16339922 -1.978407025 14.96466637
lfoot  1.664085746 -21.94542885 38.64558029
ltoes  -8.577021336 -18.13592487 -115.8522941
140
root  34.77144917 36.50043518 -14.85322517 9.605654716 -7.771930218 4.658108234
lowerback  -6.863040447 -1.606730103 -1.097060084
upperback  -4.147469997 -1.596060038 -4.139820099
thorax  -0.5221940279 -0.6263830066 -3.760260105
lowerneck  1.339609981 -19.51889992 -13.04769993
upperneck  7.764570236 -27.38090134 15.7329998
head  6.108059883 -13.1961813 4.607520103
lclavicle  0 -4.497500157e-015 -2.743230041e-014
lhumerus  -49.97940063 30.19280052 60.22129822
lradius  0.0387978293 -6.507048965e-006 29.9389019
lwrist  4.824992743e-007 -3.790274832e-007 -29.85960007
lhand  -0 -36.7181015 -10.67800045
lfingers  90 7.125020027 -90
lthumb  94.73144102 -25.52013213 100.8747372
rclavicle  0 -4.497500157e-015 -2.743230041e-014
rhumerus  -14.78199959 -37.98140335 5.808868885
rradius  -5.16745672e-007 2.214343908e-008 42.28129959
rwrist  -0.0001011603963 -0.001600692281 -163.9470062
rhand  -1.771977984e-031 4.877009869 -5.090240002
rfingers  -90 -7.125020027 -90
rthumb  -83.69550136 -10.662709 -59.15837946
rfemur  -14.73705864 15.96945953 11.47561169
rtibia  -1.867817283 -2.490469933 22.30576324
rfoot  -0.03453259543 -23.88975525 -33.79635239
rtoes  4.013553378 19.60932197 -101.808673
lfemur  -9.311508179 -16.49864006 -21.70262146
ltibia  3.128431797 -2.013650894 15.03219891
lfoot  1.663999557 -21.91059113 38.67198181
ltoes  -8.585862093 -18.13185131 -115.8806992
141
root  34.77427866 36.49997561 -14.85157313 9.602673531 -7.806130409 4.65641737
lowerback  -6.865909576 -1.600720048 -1.085389853
upperback  -4.135369778 -1.589370012 -4.143489838
thorax  -0.5081819892 -0.6237040162 -3.770440102
lowerneck  1.29598999 -19.51849937 -13.02690029
upperneck  7.749979973 -27.37809944 15.7560997
head  6.110779762 -13.19690037 4.60819006
lclavicle  0 -4.497500157e-015 -2.743230041e-014
lhumerus  -49.95339966 30.23530006 60.19250107
lradius  0.0385254696 -6.507048965e-006 29.93830109
lwrist  4.824992743e-007 -3.790274832e-007 -29.86330032
lhand  -0 -36.74980164 -10.67959976
lfingers  90 7.125020027 -90
lthumb  94.74662508 -25.52065177 100.908754
rclavicle  0 -4.497500157e-015 -2.743230041e-014
rhumerus  -14.5396986 -37.67179871 5.869466305
rradius  -5.16745672e-007 2.214343908e-008 41.61899948
rwrist  -0.0001011603963 -0.001600692281 -164.1809998
rhand  -1.772290075e-031 4.993859768 -5.817249775
rfingers  -90 -7.125020027 -90
rthumb  -84.04370818 -10.04436399 -59.11200053
rfemur  -14.73437881 15.97535706 11.46042919
rtibia  -1.860673666 -2.492682219 22.29048538
rfoot  -0.01921742223 -23.88405037 -33.76881027
rtoes  4.018955064 19.60825739 -101.8247688
lfemur  -9.312939644 -16.44161987 -21.71193314
ltibia  3.123232841 -2.018210411 15.04678345
lfoot  1.660737634 -21.91688728 38.62975693
ltoes  -8.641670452 -18.10601537 -116.0601526
142
root  34.77753166 36.50034506 -14.85048279 9.61824131 -7.846714973 4.656404018
lowerback  -6.854130268 -1.583109975 -1.060649753
upperback  -4.123859882 -1.568760037 -4.151889801
thorax  -0.5026249886 -0.6144930124 -3.791690111
lowerneck  1.288120031 -19.53160095 -13.01539993
upperneck  7.733940125 -27.39480209 15.76239967
head  6.11219883 -13.20445442 4.609409809
lclavicle  0 -4.497500157e-015 -2.743230041e-014
lhumerus  -49.92499924 30.2102375 60.19329453
lradius  0.03817820176 -6.507048965e-006 29.93359756
lwrist  4.824992743e-007 -3.790274832e-007 -29.83679962
lhand  -4.409114963e-031 -36.78680038 -10.62679958
lfingers  90 7.125020027 -90
lthumb  94.75286004 -25.46752216 100.9435516
rclavicle  0 -4.497500157e-015 -2.743230041e-014
rhumerus  -14.38909912 -37.48609924 5.946046352
rradius  -5.16745672e-007 2.214343908e-008 41.07350159
rwrist  -0.0001011603963 -0.001600692281 -164.3990021
rhand  -1.771977825e-031 4.876949787 -6.405189991
rfingers  -90 -7.125020027 -90
rthumb  -84.37901918 -9.533044396 -59.278327
rfemur  -14.74891472 15.98972893 11.43286514
rtibia  -1.852614045 -2.508518219 22.27111435
rfoot  -0.006079038139 -23.89862061 -33.74079514
rtoes  3.994110764 19.61314136 -101.7507454
lfemur  -9.348805428 -16.44139862 -21.71848106
ltibia  3.107765436 -2.031907797 15.08222961
lfoot  1.656303167 -21.91420555 38.66517258
ltoes  -8.626732795 -18.11295114 -116.0120959
143
root  34.77996466 36.49985546 -14.84977842 9.614042282 -7.871806622 4.660297394
lowerback  -6.863639832 -1.57119 -1.050930381
upperback  -4.117269993 -1.552489996 -4.165369987
thorax  -0.49031201 -0.6064739823 -3.810519934
lowerneck  1.310140014 -19.53739929 -12.99359989
upperneck  7.686989784 -27.4029007 15.80650043
head  6.09991312 -13.20813847 4.623359203
lclavicle  0 -4.497500157e-015 -2.743230041e-014
lhumerus  -49.89810181 30.23889923 60.13669968
lradius  0.03775356337 -6.507048965e-006 29.90929985
lwrist  4.824992743e-007 -3.790274832e-007 -29.87619972
lhand  -4.408804191e-031 -36.78139877 -10.56739998
lfingers  90 7.125020027 -90
lthumb  94.73786758 -25.40943696 100.9324231
rclavicle  0 -4.497500157e-015 -2.743230041e-014
rhumerus  -14.24090099 -37.30150223 6.019395351
rradius  -5.16745672e-007 2.214343908e-008 40.42839813
rwrist  -0.0001011603963 -0.001600692281 -164.5410004
rhand  -1.772135592e-031 4.936369896 -6.2323699
rfingers  -90 -7.125020027 -90
rthumb  -84.27444194 -9.684869916 -59.20524015
rfemur  -14.74853802 15.9937458 11.42335129
rtibia  -1.855268002 -2.538087606 22.26970482
rfoot  -0.01601110213 -23.96479034 -33.73840332
rtoes  4.012131556 19.60960194 -101.8044365
lfemur  -9.352003098 -16.46428871 -21.72744751
ltibia  3.101672411 -2.067995548 15.09911633
lfoot  1.653189182 -21.84930229 38.6651001
ltoes  -8.598164115 -18.12617419 -115.9202355
